HIERARCHY
ROOT Hips
{
  OFFSET 2.26061 22.2878 23.7974
  CHANNELS 6 Xposition Yposition Zposition Zrotation Xrotation Yrotation
  JOINT LeftUpLeg
  {
    OFFSET 8.64259 1.95398 -2.38835
    CHANNELS 3 Zrotation Xrotation Yrotation
    JOINT LeftLeg
    {
      OFFSET 43.7702 0 0
      CHANNELS 3 Zrotation Xrotation Yrotation
      JOINT LeftFoot
      {
        OFFSET 40.6238 0 0
        CHANNELS 3 Zrotation Xrotation Yrotation
        JOINT LeftToeBase
        {
          OFFSET 12.7242 0 0
          CHANNELS 3 Zrotation Xrotation Yrotation
          End Site
          {
            OFFSET 0 0 0
          }
        }
      }
    }
  }
  JOINT RightUpLeg
  {
    OFFSET -8.2249 1.95398 -2.59336
    CHANNELS 3 Zrotation Xrotation Yrotation
    JOINT RightLeg
    {
      OFFSET 43.5653 0 0
      CHANNELS 3 Zrotation Xrotation Yrotation
      JOINT RightFoot
      {
        OFFSET 40.6238 0 0
        CHANNELS 3 Zrotation Xrotation Yrotation
        JOINT RightToeBase
        {
          OFFSET 12.7242 0 0
          CHANNELS 3 Zrotation Xrotation Yrotation
          End Site
          {
            OFFSET 0 0 0
          }
        }
      }
    }
  }
  JOINT Spine
  {
    OFFSET 0.165834 0.87714 6.61349
    CHANNELS 3 Zrotation Xrotation Yrotation
    JOINT Spine1
    {
      OFFSET 7.38963 1.71661e-005 0
      CHANNELS 3 Zrotation Xrotation Yrotation
      JOINT Spine2
      {
        OFFSET 11.9445 1.14441e-005 0
        CHANNELS 3 Zrotation Xrotation Yrotation
        JOINT Spine3
        {
          OFFSET 14.7254 4.19617e-005 0
          CHANNELS 3 Zrotation Xrotation Yrotation
          JOINT Spine4
          {
            OFFSET 10.9679 0 0
            CHANNELS 3 Zrotation Xrotation Yrotation
            JOINT RightShoulder
            {
              OFFSET 2.46616 -1.6653 3.69651
              CHANNELS 3 Zrotation Xrotation Yrotation
              JOINT RightArm
              {
                OFFSET 13.0012 0 0
                CHANNELS 3 Zrotation Xrotation Yrotation
                JOINT RightForeArm
                {
                  OFFSET 28.7848 1.52588e-005 0
                  CHANNELS 3 Zrotation Xrotation Yrotation
                  JOINT RightHand
                  {
                    OFFSET 26.5688 1.52588e-005 0
                    CHANNELS 3 Zrotation Xrotation Yrotation
                    End Site
                    {
                      OFFSET 0 0 0
                    }
                  }
                }
              }
            }
            JOINT LeftShoulder
            {
              OFFSET 2.38034 -1.29275 -3.7523
              CHANNELS 3 Zrotation Xrotation Yrotation
              JOINT LeftArm
              {
                OFFSET 16.3182 6.10351e-005 0
                CHANNELS 3 Zrotation Xrotation Yrotation
                JOINT LeftForeArm
                {
                  OFFSET 27.0901 0 0
                  CHANNELS 3 Zrotation Xrotation Yrotation
                  JOINT LeftHand
                  {
                    OFFSET 24.5451 1.52588e-005 0
                    CHANNELS 3 Zrotation Xrotation Yrotation
                    End Site
                    {
                      OFFSET 0 0 0
                    }
                  }
                }
              }
            }
            JOINT Neck
            {
              OFFSET 5.0226 -0.0266342 0
              CHANNELS 3 Zrotation Xrotation Yrotation
              JOINT Head
              {
                OFFSET 6.69363 2.86102e-005 0
                CHANNELS 3 Zrotation Xrotation Yrotation
                End Site
                {
                  OFFSET 0 0 0
                }
              }
            }
          }
        }
      }
    }
  }
}
MOTION
Frames:	9
Frame Time:	0.0416667
17.7308 82.3707 -19.548 -79.546 -52.8175 -84.7055 -171.315 27.4147 106.867 -52.9576 18.8881 2.70853 60.6958 6.35094 13.9976 55.9874 23.4928 8.07913 165.216 59.9433 94.0757 -71.5069 4.24338 1.88317 65.1305 -3.6327 -1.97186 44.1876 0.0188989 -10.7343 -0.698834 8.98737 -88.7718 8.90195 -0.847007 2.48869 -2.77118 -0.736679 2.52352 -25.2938 -1.55566 2.11934 -5.28113 -1.55566 2.11934 90.8983 -52.7067 -98.878 16.4884 -13.1936 29.2292 -16.2844 -34.9163 -52.828 16.3765 -0.0161304 3.89348 -102.529 -45.1018 58.3035 -0.887117 -3.7537 -14.4785 19.6247 0.145748 -89.6979 23.2387 1.60231 3.07279 -0.143543 -19.881 2.98129 10.9155 -22.5357 -21.3417 
12.1399 84.1522 -16.1742 -78.1042 -49.3143 -86.1475 -168.818 18.7088 106.015 -43.0068 18.6194 2.27447 58.0807 2.79169 7.43158 54.6118 23.3041 11.591 163.85 60.9483 92.0973 -67.8826 3.76262 2.8911 60.041 -1.46588 -0.766172 42.4859 0.199379 -8.63576 -0.873742 8.56869 -88.9282 9.74435 -1.25659 2.22628 -1.92799 -1.15742 2.27938 -24.4577 -1.86752 1.74587 -4.44503 -1.86748 1.74589 90.7552 -51.5151 -99.3389 18.7609 -15.0328 37.4061 -16.4809 -32.8944 -54.5038 22.7002 -0.18698 1.40981 -101.548 -46.1163 60.2044 -3.98243 -0.701556 -9.53291 20.8513 -6.27159 -96.1476 21.6415 1.19024 1.63541 -1.04224 -17.9257 5.30338 12.6963 -20.8305 -18.7632 
5.27542 86.1906 -12.87 -77.0561 -45.7672 -89.0029 -167.418 8.76485 104.819 -30.1497 16.6985 1.91621 47.5855 -5.5575 -3.67068 53.7396 23.4526 14.8636 163.651 60.1581 89.5743 -64.8951 3.58161 3.73562 60.0422 -0.997563 -0.467331 43.1899 0.320955 -6.4786 -0.979074 8.17326 -88.934 10.5375 -1.46057 2.24918 -1.13468 -1.3602 2.31124 -23.6665 -2.06892 1.7064 -3.65382 -2.06894 1.70639 90.2392 -51.2607 -100.173 21.5604 -15.3236 43.2174 -13.8601 -31.4484 -53.2388 25.0597 -0.510088 -0.923014 -100.897 -47.0303 61.548 -5.87061 4.18707 -3.00839 21.7367 -7.9097 -100.018 21.1855 1.15268 1.58664 -3.43299 -16.3842 7.48599 14.2266 -19.3903 -16.7815 
-2.2843 87.9412 -10.2808 -75.7389 -43.7559 -92.7501 -168.455 -0.0616577 102.08 -16.5703 11.5942 2.05107 31.0502 -12.6428 -15.0985 44.1414 14.5016 18.6505 164.121 58.7651 86.1904 -63.9231 5.25363 4.25119 62.7529 -1.44788 -0.741725 46.6382 0.149047 -8.15928 -1.18574 7.92177 -88.8739 11.046 -1.83825 2.41867 -0.626025 -1.73005 2.49718 -23.161 -2.48006 1.75453 -3.14833 -2.48006 1.75452 90.1495 -51.7959 -100.19 22.5341 -12.6867 44.7487 -12.8933 -29.3205 -50.9234 24.7012 -0.326433 -0.446869 -99.9676 -47.3941 63.0701 -9.31431 8.41584 2.6284 20.282 -7.88446 -99.0954 19.5078 0.879413 0.64051 -3.50177 -15.0775 9.27006 15.4165 -17.9765 -13.9954 
-9.94149 89.0928 -7.91826 -72.699 -40.2486 -92.9273 -171.409 -1.16916 99.4402 -17.8165 15.4765 3.13812 31.2717 -13.6895 -10.2224 30.5348 0.167686 14.3937 163.606 56.2895 87.3326 -62.9599 9.11082 4.86847 66.4398 -2.61927 -1.4238 41.6577 0.245541 -8.03335 -1.10767 7.71287 -89.1578 11.4612 -1.81026 1.86208 -0.209938 -1.72656 1.93992 -22.7498 -2.28613 1.2319 -2.73712 -2.28613 1.2319 91.1594 -52.1099 -98.6062 22.2903 -10.5904 41.8921 -13.1115 -27.8464 -49.8963 19.9392 -0.346084 -0.705696 -100.506 -47.8168 62.4389 -13.7319 9.80721 8.06291 19.2076 -5.90417 -95.198 16.6008 0.781054 0.830293 -1.26967 -13.8424 12.1328 16.3709 -16.9997 -12.1859 
-16.9542 88.9652 -5.80777 -71.2704 -35.1353 -94.0187 -173.438 1.88332 96.0406 -30.0867 15.5759 3.31962 39.3393 -10.3143 -5.06563 31.9638 1.75887 12.2646 165.468 52.1666 88.3956 -62.5543 9.2662 4.37524 70.6725 -3.95308 -2.0522 41.331 0.458542 -4.15001 -0.896761 7.70754 -89.4473 11.4665 -1.52598 1.25596 -0.204198 -1.46923 1.32189 -22.7445 -1.83287 0.739202 -2.73182 -1.83285 0.739219 92.3104 -53.9329 -96.558 18.7074 -10.8764 35.6076 -12.6034 -27.6455 -49.7104 11.8152 -0.5065 -1.6669 -101.253 -49.3507 61.947 -17.8511 10.7424 12.0398 19.7524 -3.42288 -87.1227 20.481 1.00244 1.1043 1.85157 -12.3399 14.6614 16.7609 -15.7344 -9.65397 
-23.8153 88.0093 -3.96356 -69.6258 -28.4538 -93.3168 -173.815 7.73866 94.67 -44.9859 16.517 2.53367 42.5088 -9.21307 -4.33704 33.7005 3.44178 12.7182 168.725 47.4565 91.5159 -61.7186 9.13652 3.12955 79.3346 -7.00122 -3.09176 37.7173 0.419574 -1.9629 -0.49891 7.75014 -89.8103 11.3757 -0.904142 0.46872 -0.295063 -0.882641 0.508057 -22.8326 -1.00322 0.175298 -2.81995 -1.00322 0.175297 92.8303 -56.013 -95.451 14.5407 -10.7094 27.3143 -12.3036 -27.3799 -50.2159 2.53005 -0.487755 -1.65464 -101.853 -51.5162 61.9254 -20.1052 11.1897 15.5487 16.301 0.32388 -79.951 22.6705 3.28088 10.7263 4.3547 -10.5957 16.1834 17.3754 -14.2613 -7.85052 
-30.0757 87.3008 -2.74066 -69.5368 -22.6886 -93.1849 -173.538 16.959 93.9109 -62.1475 16.9652 1.40206 41.5392 -9.85073 -4.12853 35.3967 5.13431 9.66032 171.601 42.8274 93.8219 -61.349 8.12311 1.48747 80.1413 -7.64536 -3.31154 43.6121 0.565184 -2.61546 -0.137893 8.10729 -90.0454 10.659 -0.295453 -0.0629728 -1.0119 -0.297938 -0.0499098 -23.5472 -0.262871 -0.148862 -3.53458 -0.262869 -0.148859 92.798 -56.6109 -95.4003 13.0781 -9.69445 17.3009 -12.9127 -26.8676 -52.1125 -9.04581 -0.646198 0.260179 -102.854 -52.7431 60.9936 -22.9117 13.1922 18.4335 7.45654 2.21836 -66.1036 31.6445 2.04328 2.47183 8.79123 -8.95831 15.9484 17.7069 -12.8358 -5.9005 
-36.0443 86.5991 -1.59059 -69.7003 -16.9055 -92.6224 -171.597 29.3832 93.7172 -78.9688 15.6969 0.553158 42.4885 -9.04012 -1.7208 33.7009 3.58718 8.7275 173.54 36.4587 96.0705 -58.4869 7.10194 0.590427 83.2156 -9.51662 -3.79378 45.1149 0.57544 -3.01964 0.250886 8.45251 -90.1337 9.9691 0.43938 -0.300201 -1.70182 0.425738 -0.319263 -24.2375 0.509301 -0.154271 -4.22482 0.509297 -0.154284 91.1728 -55.4685 -97.9387 15.0862 -9.22543 9.07469 -15.1021 -22.256 -59.0898 -19.224 -0.74385 -0.272277 -102.792 -52.9252 61.1508 -26.7948 14.4157 22.4444 -1.65581 -0.456281 -54.4411 31.9771 1.72567 1.49482 13.4298 -7.20781 14.5121 16.306 -11.1441 -4.8301 
